<svg xmlns="http://www.w3.org/2000/svg" xmlns:xlink="http://www.w3.org/1999/xlink" width="100" height="100" viewBox="0 0 100 100"><g><g transform="translate(50 50) scale(0.69 0.69) rotate(0) translate(-50 -50)" style="fill:#FFFFFF"><svg fill="#FFFFFF" xmlns="http://www.w3.org/2000/svg" xmlns:xlink="http://www.w3.org/1999/xlink" version="1.1" x="0px" y="0px" viewBox="0 0 20 20" enable-background="new 0 0 20 20" xml:space="preserve"><path fill="#FFFFFF" d="M18.9,15.3c-0.2-0.4-0.6-0.6-1.1-0.5c-0.6,0.1-1.1,0.2-1.7,0.2C11.7,15,8,11.3,8,6.9C8,5,8.7,3.1,9.9,1.6  c0.3-0.3,0.3-0.8,0.1-1.2C9.8,0.1,9.4-0.1,9,0C4.4,1,1,5.2,1,9.9C1,15.5,5.5,20,11.1,20c3,0,5.8-1.3,7.7-3.6  C19,16.1,19.1,15.6,18.9,15.3z M11.1,18C6.6,18,3,14.4,3,9.9C3,7.1,4.5,4.5,6.8,3C6.3,4.2,6,5.5,6,6.9c0,5.2,4,9.5,9.1,10  C13.9,17.6,12.5,18,11.1,18z"></path></svg></g></g></svg>